# xmcd CD database file
#
# Track frame offsets:
#	150
#	13077
#	24701
#	37736
#	52632
#	65188
#	79064
#	92964
#	107761
#	121687
#	133059
#	146304
#	156896
#	172221
#	184333
#	197019
#	209439
#	222848
#	237231
#	247762
#	261323
#	274988
#	286189
#	297876
#	310325
#	334549
#
# Disc length: 4530 seconds
#
# Revision: 0
# Processed by: cddbd v1.5.2PL0 Copyright (c) Steve Scherf et al.
# Submitted via: CDex 1.51
#
DISCID=8011b01a
DTITLE=Hadda Brooks - Blues and Boogie
DYEAR=1952
DGENRE=Blues
TTITLE0=Swingin' The Boogie
TTITLE1=Blues In B-Flat
TTITLE2=Juke Box Boogie
TTITLE3=You Won't Let Me Go
TTITLE4=That's My Desire
TTITLE5=Trust In Me
TTITLE6=Humoresque Boogie
TTITLE7=Romance In The Dark
TTITLE8=Out Of The Blue
TTITLE9=Variety Bounce
TTITLE10=Honey, Honey, Honey
TTITLE11=Tootsie Timesie
TTITLE12=When A Woman Cries
TTITLE13=Schubert's Serenade In Boogie
TTITLE14=I Feel So Good
TTITLE15=Don't Call It Love
TTITLE16=All Night Long
TTITLE17=I'm Still In Love
TTITLE18=Time Was When
TTITLE19=Remember
TTITLE20=My Song
TTITLE21=Jump Back Honey
TTITLE22=You Let Me Love Get Cold
TTITLE23=Dreamin' And Cryin'
TTITLE24=Brooks Boogie
TTITLE25=Data
EXTD=YEAR: 1952
EXTT0=
EXTT1=
EXTT2=
EXTT3=
EXTT4=
EXTT5=
EXTT6=
EXTT7=
EXTT8=
EXTT9=
EXTT10=
EXTT11=
EXTT12=
EXTT13=
EXTT14=
EXTT15=
EXTT16=
EXTT17=
EXTT18=
EXTT19=
EXTT20=
EXTT21=
EXTT22=
EXTT23=
EXTT24=
EXTT25=
PLAYORDER=
